<svg width="20" height="20" viewBox="0 0 20 20" fill="none" xmlns="http://www.w3.org/2000/svg">
<path fill-rule="evenodd" clip-rule="evenodd" d="M4.08612 0C3.00862 2.35092 2.3929 2.96663 0 4.08612C2.04306 4.79979 3.35845 6.15717 4.08612 8.18623C4.81378 6.0872 6.17116 4.7858 8.20023 4.05813C6.11519 3.34446 4.81378 2.00108 4.08612 0ZM19.9417 10.8869C20.4734 6.05914 17.3389 1.93104 13.5466 0.601654C14.778 4.61781 14.1343 8.21415 11.1817 11.1808C8.21505 14.1334 4.6187 14.7771 0.644531 13.5457C1.59609 16.6243 5.2764 20.2066 10.454 19.9827C15.3937 19.7588 19.3819 16.0086 19.9417 10.8869Z" fill="black"/>
</svg>
