<svg width="15" height="15" viewBox="0 0 15 15" fill="none" xmlns="http://www.w3.org/2000/svg">
<path d="M13.2422 1.17236H12.5391V0.000488281H11.3672V1.17236H3.63281V0.000488281H2.46094V1.17236H1.75781C0.788498 1.17236 0 1.96086 0 2.93018V13.2427C0 14.212 0.788498 15.0005 1.75781 15.0005H13.2422C14.2115 15.0005 15 14.212 15 13.2427V2.93018C15 1.96086 14.2115 1.17236 13.2422 1.17236ZM1.75781 2.34424H2.46094V3.51611H3.63281V2.34424H11.3672V3.51611H12.5391V2.34424H13.2422C13.5653 2.34424 13.8281 2.60711 13.8281 2.93018V4.33643H1.17188V2.93018C1.17188 2.60711 1.43475 2.34424 1.75781 2.34424ZM13.2422 13.8286H1.75781C1.43475 13.8286 1.17188 13.5657 1.17188 13.2427V5.5083H13.8281V13.2427C13.8281 13.5657 13.5653 13.8286 13.2422 13.8286ZM2.22656 6.73877H3.39844V7.91064H2.22656V6.73877ZM4.57031 6.73877H5.74219V7.91064H4.57031V6.73877ZM6.91406 6.73877H8.08594V7.91064H6.91406V6.73877ZM10.4297 7.91064H9.25781V6.73877H10.4297V7.91064ZM12.7734 7.91064H11.6016V6.73877H12.7734V7.91064ZM2.22656 9.08252H3.39844V10.2544H2.22656V9.08252ZM4.57031 9.08252H5.74219V10.2544H4.57031V9.08252ZM6.91406 9.08252H8.08594V10.2544H6.91406V9.08252ZM2.22656 11.4263H3.39844V12.5981H2.22656V11.4263ZM4.57031 11.4263H5.74219V12.5981H4.57031V11.4263ZM6.91406 11.4263H8.08594V12.5981H6.91406V11.4263ZM12.9492 10.3994L11.9824 11.3232L12.2106 12.6274L11.0156 12.0116L9.82063 12.6274L10.0488 11.3232L9.08203 10.3994L10.4181 10.2092L11.0156 9.02244L11.6131 10.2091L12.9492 10.3994Z" fill="black"/>
</svg>
