<svg width="9" height="5" viewBox="0 0 9 5" fill="none" xmlns="http://www.w3.org/2000/svg">
<path d="M8.81161 0.204616C8.69095 0.0739129 8.52732 0.000488281 8.35671 0.000488281C8.18609 0.000488281 8.02246 0.0739129 7.9018 0.204616L4.95102 3.40193C4.82868 3.52916 4.66568 3.6002 4.49612 3.6002C4.32655 3.6002 4.16355 3.52916 4.04121 3.40193L1.09043 0.204616C0.969079 0.0776171 0.806547 0.00734425 0.637841 0.00893275C0.469135 0.0105212 0.307754 0.0838438 0.188457 0.213109C0.0691595 0.342373 0.00149033 0.517237 2.43233e-05 0.700038C-0.00144168 0.882839 0.0634129 1.05895 0.180619 1.19044L3.13075 4.38776C3.31 4.58201 3.52281 4.73611 3.75703 4.84124C3.99124 4.94638 4.24228 5.00049 4.49579 5.00049C4.74931 5.00049 5.00035 4.94638 5.23456 4.84124C5.46878 4.73611 5.68159 4.58201 5.86083 4.38776L8.81161 1.19044C8.93224 1.0597 9 0.882399 9 0.697529C9 0.512659 8.93224 0.335358 8.81161 0.204616Z" fill="black"/>
</svg>
