<svg width="23" height="23" viewBox="0 0 23 23" fill="none" xmlns="http://www.w3.org/2000/svg">
<path fill-rule="evenodd" clip-rule="evenodd" d="M22.5719 11.5753C22.5534 11.7207 22.5338 11.865 22.5141 12.0092L22.514 12.0098C22.4944 12.1538 22.4748 12.2978 22.4563 12.4431C22.1232 14.8766 21.1056 16.9563 19.4357 18.6725C17.9693 20.185 16.2115 21.1545 14.1854 21.5666L14.1845 21.5668L14.1844 21.5668C14.0552 21.5909 13.926 21.6151 13.8015 21.6393C13.7928 21.427 13.783 21.219 13.7732 21.0098L13.7732 21.0096C13.7622 20.7745 13.7511 20.5378 13.7413 20.2916C15.4806 19.9571 17.0164 19.1766 18.344 17.9017C17.9184 17.5332 17.9508 17.0872 18.1266 16.617C18.1543 16.5443 18.1774 16.4716 18.1913 16.3988C18.2607 16.0837 18.1959 15.948 17.9091 15.8123C17.889 15.8017 17.868 15.7939 17.8469 15.7861C17.8195 15.7759 17.7919 15.7657 17.7658 15.7492C17.7229 15.7193 17.6717 15.6917 17.6203 15.664C17.5051 15.6019 17.3889 15.5392 17.3633 15.4487C17.2847 15.1675 17.3263 14.8573 17.5483 14.6343C17.6964 14.4888 17.8721 14.3725 18.0479 14.2561L18.0479 14.2561C18.455 13.9798 18.5105 13.7132 18.2144 13.306C17.997 13.0054 17.7195 12.8163 17.3309 12.826C16.91 12.8406 16.5168 12.7097 16.1652 12.4625C15.8646 12.254 15.698 11.9583 15.735 11.5802C15.7905 11.0081 15.5639 10.63 15.0828 10.4021C14.8608 10.2955 14.6387 10.1937 14.4167 10.0967C13.8801 9.85435 13.6858 9.51985 13.783 8.91388C13.8894 8.23034 14.227 7.70678 14.8608 7.4547C15.4159 7.2317 15.9478 6.98446 16.3826 6.55301C16.7805 6.15549 17.1181 5.69496 17.0626 5.08898C17.0164 4.60421 16.8915 4.11943 16.7435 3.65889C16.6463 3.35348 16.4613 3.06746 16.2809 2.79599C15.9895 2.35969 15.6194 2.03004 15.1106 1.87491C14.1206 1.56465 13.1261 1.28833 12.0807 1.4483C11.8031 1.49193 11.521 1.57919 11.2619 1.70039C11.0029 1.82158 10.9427 2.07851 11.1139 2.31606C11.248 2.50027 11.4238 2.66994 11.6135 2.78629C11.8549 2.93169 12.1029 3.05964 12.3517 3.18794L12.3517 3.18794C12.5176 3.27353 12.6838 3.35926 12.8486 3.45044C13.029 3.55224 13.2094 3.65889 13.3666 3.79948C13.6396 4.04186 13.6442 4.35212 13.3666 4.58966C13.2153 4.7187 13.0554 4.83581 12.8949 4.95339C12.766 5.04785 12.6366 5.14261 12.5109 5.24411C12.2888 5.42348 12.0668 5.60285 11.8725 5.8113C11.5487 6.16034 11.632 6.52877 12.0529 6.72753C12.3212 6.85357 12.3767 6.96507 12.3351 7.27048C12.2657 7.73587 12.1038 8.16247 11.7846 8.50667C11.4284 8.89449 11.137 8.88964 10.7623 8.52606C10.42 8.19156 10.0731 7.85706 9.70303 7.55165C9.38848 7.28987 8.99992 7.18322 8.6021 7.19777C8.04701 7.21231 7.68157 7.57105 7.44566 8.06552C7.25138 8.46788 7.31151 8.85571 7.58906 9.20475C7.76484 9.42774 7.98225 9.49561 8.23667 9.43744C8.35229 9.41078 8.4656 9.37928 8.57892 9.34777L8.57898 9.34776L8.57899 9.34775C8.69232 9.31624 8.80564 9.28473 8.92128 9.25807C9.28672 9.17566 9.49488 9.3017 9.56889 9.67983C9.63365 10.0046 9.67065 10.3343 9.70303 10.6639C9.7863 11.522 10.161 12.1377 10.9751 12.4237C11.2943 12.5352 11.5996 12.7 11.9049 12.8988C11.8212 12.9215 11.737 12.9418 11.6528 12.962L11.6527 12.9621L11.6527 12.9621C11.5041 12.9978 11.3557 13.0335 11.211 13.083C10.5542 13.3011 9.89732 13.5241 9.24508 13.7665C9.06005 13.8344 8.89815 13.8538 8.71312 13.7907C8.52995 13.7308 8.34364 13.6807 8.1334 13.6241L7.99613 13.5871C8.05482 13.5421 8.10996 13.5004 8.16253 13.4606L8.16255 13.4606C8.27983 13.3718 8.38425 13.2927 8.48646 13.209C8.75013 12.9909 8.95366 12.7436 8.93053 12.3606C8.9074 11.9437 8.7085 11.6529 8.35231 11.5074C7.90581 11.3262 7.45231 11.1669 6.9979 11.0073L6.99785 11.0073L6.79343 10.9354C5.70637 10.5573 5.00788 9.76709 4.57306 8.68119C4.32789 8.06552 4.15211 7.43046 4.13361 6.76147C4.13361 6.72551 4.12654 6.68956 4.11678 6.63987L4.11677 6.63986C4.11074 6.60916 4.10367 6.57321 4.0966 6.52877C3.18995 8.40001 2.90778 10.3197 3.17145 12.3122C2.76647 12.3952 2.37824 12.4783 1.95095 12.5696L1.95067 12.5697L1.88549 12.5836C1.87596 12.384 1.86262 12.1827 1.84921 11.9802C1.82354 11.5927 1.7976 11.201 1.7976 10.8094C1.8161 6.16519 4.7072 1.95247 9.00917 0.566008C12.8347 -0.684718 16.2855 0.1491 19.2506 2.95111C21.0547 4.65753 22.0955 6.82449 22.4609 9.34533C22.5025 9.64105 22.5349 9.93676 22.5673 10.2373C22.5719 10.6833 22.5719 11.1293 22.5719 11.5753ZM13.4322 14.1713L13.4322 14.1713L13.4321 14.1713C13.1538 14.3071 12.8748 14.4432 12.5895 14.5615C12.3675 14.6536 12.2287 14.77 12.2565 15.0415C12.2632 15.0912 12.2576 15.1408 12.2505 15.2038L12.2505 15.2039C12.2479 15.2269 12.2451 15.2517 12.2426 15.279C12.278 15.2631 12.311 15.2491 12.3422 15.2359L12.3422 15.2359C12.3965 15.2128 12.4454 15.1921 12.4924 15.1675C12.8296 15.0053 13.1658 14.8431 13.5019 14.6809L13.5028 14.6805C13.8394 14.518 14.176 14.3556 14.5138 14.1931C14.9718 13.9701 15.624 14.3191 15.7258 14.8476C15.8137 15.2839 15.6333 15.6329 15.3696 15.9383C14.87 16.5249 14.2363 16.9176 13.5794 17.2666C11.5256 18.367 9.34222 19.1233 7.12186 19.7535C5.8663 20.1087 4.59782 20.4152 3.32994 20.7215L3.32984 20.7215L3.32946 20.7216C2.90186 20.8249 2.47433 20.9282 2.04739 21.0333C1.64032 21.1351 1.22863 21.1254 0.830811 20.9751C0.37286 20.8006 0.280344 20.4225 0.594897 20.0395C0.667677 19.9533 0.75128 19.8762 0.836821 19.7972L0.836947 19.7971C0.876413 19.7607 0.91629 19.7239 0.955707 19.6856C0.835393 19.4629 0.718556 19.2447 0.603313 19.0295C0.452706 18.7482 0.304819 18.472 0.155449 18.1974C-0.168355 17.5962 0.0166756 17.223 0.682786 17.189C0.904823 17.1793 1.14999 17.2521 1.35352 17.3539C1.66131 17.506 1.96181 17.6753 2.26302 17.8451L2.26304 17.8451L2.26313 17.8452C2.44174 17.9458 2.6206 18.0466 2.80139 18.144C2.87077 18.1828 2.98179 18.2071 3.0373 18.178C3.72192 17.7902 4.4019 17.3926 5.10502 16.9806L5.06114 16.9466C5.00939 16.9065 4.96149 16.8693 4.91074 16.8351L4.90912 16.834C3.93362 16.1703 2.95813 15.5065 1.98725 14.8427C1.5478 14.5421 1.55706 14.2222 1.9965 13.9216C2.5516 13.5387 3.1437 13.4514 3.78668 13.6356C5.47971 14.1155 7.18199 14.5809 8.87965 15.0415C8.99529 15.0754 9.14332 15.0657 9.25896 15.0221L9.50403 14.9268C10.4351 14.5644 11.3666 14.2017 12.349 14.0234C12.6764 13.964 13.0103 13.9428 13.3448 13.9216H13.3448C13.5017 13.9116 13.6588 13.9016 13.8153 13.8877C13.8153 13.9111 13.8197 13.9322 13.824 13.9525C13.8259 13.9617 13.8278 13.9708 13.8292 13.9798C13.6966 14.0423 13.5645 14.1067 13.4322 14.1713ZM11.5348 22.5701C12.1547 22.4973 12.6867 21.8284 12.6635 21.1206C12.658 21.0687 12.6524 21.0166 12.6467 20.9642C12.573 20.2773 12.4947 19.5479 12.4045 18.8227C12.3814 18.6288 12.2657 18.5513 12.0899 18.6143C11.1509 18.9536 10.2072 19.2978 9.26821 19.6517C9.0693 19.7244 9.02767 19.8844 9.16645 20.0492L9.16657 20.0494C9.82801 20.8444 10.4895 21.6393 11.1648 22.4198C11.248 22.5119 11.4146 22.5846 11.5348 22.5701Z" fill="black"/>
</svg>
