<svg width="22" height="22" viewBox="0 0 22 22" fill="none" xmlns="http://www.w3.org/2000/svg">
<path d="M0 7.34668C0.0802083 7.34094 0.154687 7.33521 0.234896 7.33521C7.41354 7.33521 14.5865 7.33521 21.7651 7.33521C21.8453 7.33521 21.9198 7.34094 22 7.34668C22 7.73124 22 8.12153 22 8.50609C21.9484 8.6668 21.9083 8.83899 21.8396 8.98822C21.5073 9.69993 20.9344 10.0615 20.1552 10.0787C19.2443 10.096 18.3391 10.096 17.4281 10.0787C16.5229 10.0615 15.8526 9.51052 15.6292 8.6381C15.6177 8.59218 15.6005 8.54627 15.5776 8.46591C15.4057 9.29242 14.9531 9.82047 14.1625 10.0214C13.9792 10.0673 13.7786 10.073 13.5896 10.0787C11.8708 10.0845 10.1521 10.0787 8.43333 10.0787C7.33906 10.0787 6.68021 9.56218 6.41667 8.47165C6.39375 8.54053 6.38229 8.58644 6.3651 8.63236C6.14167 9.51052 5.47708 10.0558 4.57188 10.073C3.66094 10.0902 2.75573 10.0902 1.84479 10.073C0.928125 10.0673 0.246354 9.49905 0.0401042 8.6094C0.034375 8.57497 0.0171875 8.54053 0 8.51183C0 8.12153 0 7.73698 0 7.34668Z" fill="black"/>
<path d="M13.1943 0C13.3719 0.912601 13.5495 1.8252 13.7328 2.73206C13.962 3.89721 14.1969 5.05661 14.4318 6.22176C14.4433 6.27342 14.4433 6.33081 14.4433 6.39969C12.1459 6.39969 9.85992 6.39969 7.53961 6.39969C7.62555 5.95774 7.70576 5.533 7.79169 5.10827C8.12972 3.4323 8.46201 1.75633 8.80003 0.0860945C8.80576 0.0573963 8.80576 0.0286982 8.80576 0C10.2724 0 11.7334 0 13.1943 0Z" fill="black"/>
<path d="M6.96097 0C6.80628 0.763371 6.64586 1.52674 6.49117 2.29011C6.22763 3.59875 5.96982 4.91312 5.70628 6.22176C5.69482 6.27916 5.67763 6.33081 5.66045 6.39969C3.86149 6.39969 2.0568 6.39969 0.234924 6.39969C0.355237 5.98069 0.46982 5.57318 0.584403 5.17141C0.991174 3.74224 1.4094 2.31307 1.80472 0.878163C1.9193 0.447691 2.13701 0.132011 2.57815 0C4.03909 0 5.50003 0 6.96097 0Z" fill="black"/>
<path d="M19.4219 0C19.863 0.132011 20.0807 0.447691 20.201 0.883903C20.6938 2.65171 21.2036 4.41952 21.7078 6.18732C21.725 6.2562 21.7422 6.32507 21.7651 6.40543C19.949 6.40543 18.1557 6.40543 16.3339 6.40543C16.2307 5.90034 16.1276 5.38951 16.0245 4.87868C15.7036 3.27733 15.3885 1.68171 15.0677 0.0803548C15.062 0.0516567 15.0505 0.0286981 15.0391 0C16.5 0 17.9609 0 19.4219 0Z" fill="black"/>
<path d="M6.41093 10.2969C6.85781 10.6757 7.35625 10.911 7.92916 10.9799C8.07812 10.9971 8.22708 11.0028 8.38177 11.0028C10.026 11.0028 11.676 10.9914 13.3203 11.0086C14.1568 11.0201 14.9302 10.8881 15.5776 10.3026C15.95 10.6126 16.351 10.8421 16.8151 10.9282C17.0328 10.9684 17.2562 10.9971 17.474 10.9971C18.3448 11.0029 19.2213 11.0086 20.0922 10.9971C20.413 10.9914 20.7281 10.9282 21.0719 10.8938C21.0776 10.9512 21.0833 11.0258 21.0833 11.1004C21.0833 14.3892 21.0833 17.6723 21.0833 20.9611C21.0833 21.6441 20.7167 22.0057 20.0349 22.0057C16.7979 22.0057 13.5609 22.0057 10.324 22.0057C10.2552 22.0057 10.1807 22.0057 10.0833 22.0057C10.0833 21.9024 10.0833 21.8106 10.0833 21.7187C10.0833 19.1187 10.0833 16.5186 10.0833 13.9186C10.0833 13.7694 10.0719 13.6144 10.0318 13.4709C9.92291 13.0863 9.57916 12.8395 9.16093 12.8395C7.63697 12.8338 6.11302 12.8338 4.58333 12.8395C4.07343 12.8395 3.70677 13.1954 3.66093 13.7005C3.6552 13.7866 3.6552 13.8727 3.6552 13.9588C3.6552 16.5359 3.6552 19.1129 3.6552 21.69C3.6552 21.7819 3.6552 21.8737 3.6552 21.9942C3.42604 21.9942 3.2026 21.9942 2.98489 21.9942C2.60677 21.9942 2.22864 22 1.84479 21.9942C1.32916 21.9885 0.951038 21.6384 0.905204 21.1218C0.899475 21.0587 0.899475 20.9955 0.899475 20.9267C0.899475 17.6551 0.899475 14.3835 0.899475 11.1119C0.899475 11.0315 0.899475 10.9569 0.899475 10.8594C1.95364 11.1004 2.99635 10.9455 4.03906 10.9971C4.92135 11.043 5.73489 10.9168 6.41093 10.2969ZM15.1479 12.8395C14.3974 12.8395 13.6469 12.8395 12.8906 12.8395C12.2891 12.8453 11.9167 13.2126 11.9109 13.821C11.9052 14.6877 11.9052 15.5544 11.9109 16.4211C11.9109 17.0409 12.2833 17.414 12.8963 17.414C14.3802 17.414 15.8583 17.414 17.3422 17.414C17.9552 17.414 18.3276 17.0409 18.3333 16.4211C18.3391 15.5601 18.3391 14.7049 18.3333 13.844C18.3333 13.2126 17.9609 12.8395 17.3365 12.8395C16.6088 12.8338 15.8755 12.8395 15.1479 12.8395Z" fill="black"/>
</svg>
