<svg width="23" height="23" viewBox="0 0 23 23" fill="none" xmlns="http://www.w3.org/2000/svg">
<path fill-rule="evenodd" clip-rule="evenodd" d="M23 10.8246V12.1689C22.9913 12.2082 22.9847 12.2475 22.9782 12.2868C22.9716 12.3261 22.9651 12.3653 22.9564 12.4046C22.9357 12.552 22.9173 12.6993 22.8989 12.8464L22.8989 12.8467C22.8553 13.1963 22.8118 13.5446 22.7381 13.8886C22.1358 16.6472 20.7216 18.9168 18.4694 20.6191C15.6672 22.7404 12.5159 23.4387 9.08517 22.7229C6.33537 22.1468 4.10062 20.7064 2.38964 18.4804C0.538981 16.0972 -0.229216 13.3561 0.0588579 10.3532C0.294555 7.90893 1.23734 5.76147 2.86103 3.91955C4.64185 1.90303 6.85914 0.654713 9.51291 0.18332C9.8039 0.130943 10.0949 0.0940848 10.3859 0.0572269L10.3859 0.0572232C10.5314 0.0387954 10.6769 0.0203675 10.8223 0H12.1667C12.1917 0.00357861 12.2153 0.0100913 12.2386 0.016531C12.2722 0.0258001 12.3052 0.034918 12.3413 0.034918C14.1396 0.165861 15.8243 0.672172 17.3607 1.61496C20.3375 3.43943 22.1707 6.07574 22.8167 9.51516C22.8749 9.80615 22.9098 10.0971 22.9447 10.3881C22.9622 10.5336 22.9796 10.6791 23 10.8246ZM11.5032 2.09508C6.3441 2.07762 2.12775 6.28524 2.09283 11.4793C2.05791 16.6384 6.30045 20.8897 11.4945 20.9072C16.6624 20.9246 20.8787 16.717 20.9136 11.5142C20.9398 6.36381 16.6973 2.10381 11.5032 2.09508ZM12.5624 14.8528V14.8531V14.8532C12.5659 15.611 12.5695 16.3669 12.5508 17.1273C12.542 17.8344 11.8175 18.3058 11.1628 18.0526C10.7612 17.9042 10.5255 17.5987 10.4819 17.1622C10.4731 17.1011 10.4731 17.04 10.4731 16.9789V10.8944C10.4731 10.3008 10.7874 9.88182 11.3112 9.77706C11.9397 9.65485 12.5246 10.1001 12.5508 10.746C12.5639 11.0996 12.5622 11.4531 12.5606 11.8067C12.56 11.9245 12.5595 12.0424 12.5595 12.1602V13.941C12.5595 14.2455 12.5609 14.5493 12.5624 14.8528ZM12.9087 6.28515C12.9174 5.51695 12.2802 4.88843 11.512 4.88843C10.7525 4.88843 10.1327 5.50822 10.124 6.27642C10.1153 7.03589 10.7612 7.68187 11.5207 7.67314C12.2802 7.66441 12.9087 7.04462 12.9087 6.28515Z" fill="black"/>
</svg>
