<svg width="20" height="20" viewBox="0 0 20 20" fill="none" xmlns="http://www.w3.org/2000/svg">
<path fill-rule="evenodd" clip-rule="evenodd" d="M9.93954 0.112918L9.93976 0.112478L9.99556 0C10.2952 0.603911 10.5875 1.18819 10.8773 1.76756L10.8776 1.76811C11.1675 2.34765 11.455 2.92229 11.7449 3.50675H8.24626C8.81737 2.37459 9.36082 1.2793 9.93912 0.113768L9.93954 0.112918ZM4.13691 6.57146C3.96912 6.0725 3.80132 5.56818 3.63046 5.05467L3.63046 5.05465C3.40105 4.36515 3.16613 3.65908 2.91829 2.9272L3.67811 3.18061L3.67813 3.18062C4.66937 3.51139 5.62311 3.82965 6.56433 4.1354C5.75846 4.9507 4.96243 5.74634 4.13691 6.57146ZM14.7111 9.99961C14.7111 12.5928 12.5981 14.6949 10.0037 14.6949C7.39936 14.6949 5.28643 12.5732 5.29626 9.96032C5.30609 7.37692 7.41901 5.27484 10.0233 5.28466C12.608 5.29448 14.7111 7.41621 14.7111 9.99961ZM14.2268 4.95906L14.2269 4.95922C14.7652 5.49942 15.302 6.03817 15.852 6.58128C16.0748 5.92396 16.2946 5.26064 16.5181 4.58631L16.5184 4.58553L16.519 4.58344C16.6993 4.03939 16.882 3.48818 17.0706 2.9272C16.2144 3.21025 15.3936 3.48448 14.5903 3.75285L14.5899 3.75297L14.5897 3.75304L14.5889 3.75331C14.194 3.88525 13.8033 4.01577 13.4147 4.14523C13.6863 4.41672 13.9558 4.68713 14.2249 4.95718L14.2253 4.95762L14.2258 4.95806L14.2262 4.95851L14.2267 4.95896L14.2268 4.95906ZM6.56508 15.8541C6.12722 16.0012 5.68523 16.1483 5.23705 16.2975C4.48816 16.5467 3.72198 16.8017 2.92887 17.0721L3.18239 16.3127C3.51334 15.3219 3.83176 14.3686 4.13767 13.4278L6.56508 15.8541ZM14.6236 14.6212C14.2182 15.0264 13.8128 15.4316 13.4049 15.8442C13.8851 16.0042 14.3636 16.1626 14.845 16.3219L14.8469 16.3225C15.5767 16.5641 16.313 16.8078 17.0706 17.0622C16.6382 15.7853 16.2353 14.5869 15.8422 13.3983C15.4344 13.8109 15.029 14.2161 14.6236 14.6212ZM1.209 10.6028C1.98626 10.9901 2.74364 11.3676 3.51827 11.7579V8.24137C2.72877 8.63267 1.96526 9.01531 1.19035 9.40367L1.18946 9.40411C0.797505 9.60054 0.402632 9.79844 0 9.99966C0.409271 10.2042 0.808565 10.4032 1.20272 10.5996L1.20843 10.6025L1.209 10.6028ZM16.4917 8.24137C17.0764 8.53115 17.6514 8.81846 18.2312 9.10824C18.811 9.39801 19.3957 9.69024 20.0001 9.98983L19.9988 9.9905C18.8003 10.5894 17.6607 11.159 16.4917 11.7481V8.24137ZM8.24626 16.4926C8.82608 17.6615 9.38626 18.7813 9.99556 19.9993C10.6049 18.7813 11.1749 17.6418 11.7449 16.4926H8.24626Z" fill="black"/>
</svg>
