<svg width="15" height="16" viewBox="0 0 15 16" fill="none" xmlns="http://www.w3.org/2000/svg">
<path d="M7.50003 10.6672C7.81752 10.6678 8.13078 10.5962 8.41503 10.4579L9.77867 9.79123C10.1194 9.62582 10.4059 9.37039 10.6057 9.0539C10.8055 8.73741 10.9106 8.37252 10.9091 8.00059V6.02261C10.9103 5.65101 10.805 5.28651 10.6052 4.97039C10.4054 4.65427 10.1191 4.39917 9.77867 4.23397L8.41503 3.56731C8.13082 3.42919 7.81776 3.35731 7.50038 3.35731C7.18299 3.35731 6.86993 3.42919 6.58572 3.56731L5.22208 4.23397C4.88152 4.39907 4.59505 4.65414 4.39513 4.97026C4.19521 5.28639 4.08984 5.65094 4.09095 6.02261V8.00059C4.08973 8.37229 4.19497 8.7369 4.39476 9.05313C4.59455 9.36937 4.88091 9.62459 5.2214 9.7899L6.58503 10.4566C6.86917 10.5953 7.18244 10.6674 7.50003 10.6672ZM5.45458 8.00059V6.02261C5.45567 5.9546 5.4674 5.88716 5.48935 5.82262L6.97572 6.54927C7.13852 6.62884 7.31803 6.67026 7.50003 6.67026C7.68204 6.67026 7.86155 6.62884 8.02435 6.54927L9.51072 5.82262C9.53267 5.88716 9.5444 5.9546 9.54549 6.02261V8.00059C9.54602 8.12457 9.51097 8.24621 9.44432 8.35169C9.37766 8.45716 9.28208 8.54224 9.16844 8.59725L7.80481 9.26391C7.70995 9.3098 7.60553 9.33368 7.49969 9.33368C7.39385 9.33368 7.28944 9.3098 7.19458 9.26391L5.83094 8.59725C5.71743 8.54215 5.62199 8.45703 5.55546 8.35156C5.48894 8.24609 5.45399 8.1245 5.45458 8.00059ZM12.2728 14.6672H10.4257L12.8032 12.5192C13.8529 11.4928 14.5676 10.185 14.8565 8.76122C15.1455 7.33747 14.9959 5.86189 14.4265 4.52137C13.8572 3.18084 12.8938 2.03566 11.6584 1.23087C10.4229 0.426084 8.97099 -0.00211715 7.48648 0.000500209C6.00196 0.00311757 4.55162 0.436436 3.31915 1.24558C2.08669 2.05472 1.12753 3.20328 0.563146 4.54581C-0.00123288 5.88834 -0.145441 7.36443 0.148785 8.78715C0.443011 10.2099 1.16244 11.5152 2.21595 12.5379L4.57435 14.6672H2.72731C2.54648 14.6672 2.37306 14.7374 2.24519 14.8624C2.11733 14.9875 2.04549 15.157 2.04549 15.3338C2.04549 15.5106 2.11733 15.6802 2.24519 15.8052C2.37306 15.9303 2.54648 16.0005 2.72731 16.0005H12.2728C12.4536 16.0005 12.627 15.9303 12.7549 15.8052C12.8827 15.6802 12.9546 15.5106 12.9546 15.3338C12.9546 15.157 12.8827 14.9875 12.7549 14.8624C12.627 14.7374 12.4536 14.6672 12.2728 14.6672ZM3.16095 3.09132C4.30921 1.96354 5.86864 1.32796 7.49618 1.3244C9.12372 1.32083 10.686 1.94958 11.8395 3.07232C12.9929 4.19505 13.6429 5.71981 13.6466 7.31116C13.6502 8.90251 13.0072 10.4301 11.8589 11.5579L9.14185 14.0118C8.69529 14.4234 8.10422 14.6517 7.49056 14.6495C6.87691 14.6474 6.28749 14.4151 5.8439 14.0005L3.16095 11.5765C2.01181 10.4505 1.36644 8.92468 1.36644 7.33393C1.36644 5.74318 2.01181 4.21739 3.16095 3.09132Z" fill="black"/>
</svg>
