<svg width="23" height="23" viewBox="0 0 23 23" fill="none" xmlns="http://www.w3.org/2000/svg">
<path fill-rule="evenodd" clip-rule="evenodd" d="M22.5719 11.6117C22.5517 5.35783 17.4841 0.308966 11.2388 0.329162C5.00029 0.349357 -0.0134326 5.41842 2.70365e-05 11.6992C0.0134867 17.9194 5.11469 22.9212 11.4273 22.901C17.538 22.8875 22.5921 17.7646 22.5719 11.6117ZM15.9901 5.7954C16.5823 5.4992 17.2082 5.87618 17.2284 6.56283C17.2198 6.58634 17.2106 6.61732 17.2001 6.65275C17.1774 6.72889 17.1486 6.82559 17.1072 6.91289C16.9671 7.19401 16.8272 7.47502 16.6872 7.75593C15.7113 9.71503 14.7379 11.669 13.7491 13.6178C13.6548 13.8063 13.4664 13.988 13.278 14.0823C11.0571 15.2065 8.82956 16.3172 6.60199 17.428C6.21166 17.6165 5.86171 17.5761 5.59924 17.3203C5.33005 17.0577 5.28967 16.701 5.48484 16.3038L5.48493 16.3036C6.59532 14.0754 7.70571 11.8472 8.82956 9.62581C8.92378 9.44405 9.10548 9.25556 9.29392 9.16131C10.4077 8.59584 11.5249 8.0371 12.642 7.47836C13.7592 6.91962 14.8763 6.36088 15.9901 5.7954ZM14.4627 8.58916C14.4963 8.51519 14.5299 8.44118 14.577 8.33358C14.5592 8.33753 14.5449 8.34032 14.5331 8.34263C14.5046 8.3482 14.4903 8.35099 14.476 8.36051L10.2968 10.4608C10.216 10.5012 10.142 10.5887 10.1016 10.6695C9.42191 12.0159 8.74893 13.3623 8.07595 14.7154C8.05624 14.7548 8.04375 14.7978 8.02791 14.8524C8.02211 14.8723 8.01586 14.8939 8.00865 14.9173C8.07595 14.8904 8.1096 14.8769 8.13652 14.8635C9.5094 14.1768 10.8823 13.4902 12.2484 12.7968C12.3494 12.7429 12.4369 12.6285 12.4907 12.5275C13.1502 11.2148 13.8098 9.9021 14.4626 8.58939L14.4627 8.58916Z" fill="white"/>
</svg>
