<svg width="19" height="19" viewBox="0 0 19 19" fill="none" xmlns="http://www.w3.org/2000/svg">
<path d="M18.774 0.17266C18.6297 0.0450705 18.4384 -0.0161997 18.2468 0.00368035L6.03251 1.36081C5.6887 1.39886 5.42855 1.68943 5.42859 2.0353V14.1281C4.81359 13.7601 4.1096 13.5675 3.39288 13.571C1.52205 13.5711 0 14.7884 0 16.2853C0 17.7823 1.52205 18.9996 3.39284 18.9996C5.26363 18.9996 6.78568 17.7829 6.78568 16.2853V6.03893L17.6428 4.82971V12.769C17.0276 12.4017 16.3236 12.2097 15.6071 12.2139C13.7363 12.2139 12.2143 13.4313 12.2143 14.9282C12.2143 16.4251 13.7363 17.6425 15.6071 17.6425C17.4779 17.6425 19 16.4258 19 14.9282V0.678209C19 0.485214 18.9178 0.301364 18.774 0.17266Z" fill="black"/>
</svg>
