<svg width="28" height="27" viewBox="0 0 28 27" fill="none" xmlns="http://www.w3.org/2000/svg">
<path d="M27.6728 25.0955L20.7147 18.3859C22.6108 16.1496 23.5431 13.2962 23.3187 10.4157C23.0942 7.53522 21.7302 4.84811 19.5088 2.91019C17.2874 0.972274 14.3786 -0.0681919 11.3839 0.00400956C8.38926 0.076211 5.53795 1.25556 3.41975 3.2981C1.30155 5.34065 0.0785273 8.09013 0.00365169 10.9778C-0.0712239 13.8655 1.00778 16.6705 3.01747 18.8126C5.02716 20.9546 7.81379 22.2699 10.801 22.4863C13.7881 22.7028 16.7473 21.8038 19.0663 19.9753L26.0245 26.6849C26.2443 26.8897 26.5388 27.003 26.8444 27.0004C27.1501 26.9979 27.4424 26.8797 27.6586 26.6713C27.8747 26.4628 27.9973 26.1809 28 25.8862C28.0026 25.5914 27.8851 25.3075 27.6728 25.0955ZM11.6944 20.2698C9.84996 20.2698 8.04693 19.7424 6.51334 18.7543C4.97974 17.7662 3.78444 16.3617 3.0786 14.7186C2.37277 13.0754 2.18809 11.2673 2.54792 9.52286C2.90775 7.77846 3.79594 6.17613 5.10016 4.9185C6.40437 3.66086 8.06605 2.80439 9.87505 2.45741C11.6841 2.11043 13.5591 2.28851 15.2632 2.96914C16.9672 3.64977 18.4237 4.80238 19.4484 6.2812C20.4731 7.76003 21.0201 9.49866 21.0201 11.2772C21.0173 13.6614 20.0339 15.9471 18.2856 17.633C16.5373 19.3189 14.1669 20.2672 11.6944 20.2698Z" fill="white"/>
</svg>
