<svg width="20" height="15" viewBox="0 0 20 15" fill="none" xmlns="http://www.w3.org/2000/svg">
<g clip-path="url(#clip0_1_685)">
<path d="M18.5687 13.5068C12.8442 13.5068 7.14952 13.5068 1.43097 13.5068C1.43097 13.738 1.43097 13.963 1.43097 14.188C1.42501 14.663 1.12686 15.0005 0.715406 15.0005C0.297994 15.0005 -0.000157382 14.6568 -0.000157382 14.1818C-0.000157382 12.463 -0.00612041 10.7443 -0.000157382 9.02554C0.00580565 7.73804 0.942001 6.75054 2.16442 6.75054C7.38804 6.74429 12.6057 6.74429 17.8293 6.75054C19.0577 6.75054 19.9879 7.73179 19.9939 9.02554C19.9998 10.7443 19.9939 12.463 19.9939 14.1818C19.9939 14.6568 19.6957 15.0005 19.2843 15.0005C18.8728 15.0005 18.5687 14.663 18.5687 14.188C18.5687 13.9693 18.5687 13.7505 18.5687 13.5068Z" fill="#3C3C3C"/>
<path d="M17.8533 5.23799C17.1258 5.23799 16.4282 5.23799 15.7126 5.23799C15.7126 4.98799 15.7126 4.74424 15.7126 4.50674C15.7007 3.65674 15.0865 3.00674 14.2815 3.00049C13.5659 2.99424 12.8563 2.99424 12.1407 3.00049C11.3477 3.00674 10.7275 3.65674 10.7156 4.48799C10.7096 4.73174 10.7156 4.96924 10.7156 5.23174C10.2445 5.23174 9.77938 5.23174 9.28444 5.23174C9.28444 5.01299 9.28444 4.78799 9.28444 4.56299C9.27848 3.63799 8.67622 3.00049 7.79965 3.00049C7.12583 3.00049 6.44604 3.00049 5.77222 3.00049C4.90162 3.00674 4.29339 3.64424 4.28743 4.55049C4.28743 4.77549 4.28743 5.00049 4.28743 5.25049C3.92368 5.25049 3.57783 5.25049 3.23197 5.25049C2.88015 5.25049 2.53429 5.25049 2.1467 5.25049C2.1467 5.16924 2.1467 5.09424 2.1467 5.02549C2.1467 3.63799 2.1467 2.24424 2.1467 0.856738C2.1467 0.294238 2.421 0.000488281 2.95767 0.000488281C7.65057 0.000488281 12.3435 0.000488281 17.0364 0.000488281C17.579 0.000488281 17.8593 0.294238 17.8593 0.869238C17.8593 2.25049 17.8593 3.63174 17.8593 5.01924C17.8533 5.08174 17.8533 5.15049 17.8533 5.23799Z" fill="#3C3C3C"/>
</g>
<defs>
<clipPath id="clip0_1_685">
<rect width="20" height="15" fill="white" transform="translate(0 0.000488281)"/>
</clipPath>
</defs>
</svg>
