<svg width="23" height="15" viewBox="0 0 23 15" fill="none" xmlns="http://www.w3.org/2000/svg">
<g clip-path="url(#clip0_1_726)">
<path d="M22.9998 5.50362C22.956 5.64806 22.9122 5.79972 22.8684 5.94416C22.7808 6.23304 22.642 6.34136 22.3281 6.34136C21.7293 6.34136 21.1306 6.34136 20.5319 6.34136C20.4735 6.34136 20.4077 6.34859 20.3055 6.36303C20.3639 6.41358 20.3858 6.44247 20.4151 6.45692C20.9043 6.67357 21.0868 7.07078 21.0868 7.58354C21.0795 9.10737 21.0868 10.6312 21.0868 12.1623C21.0868 12.8772 21.0868 13.5994 21.0868 14.3144C21.0868 14.8127 20.9043 15.0005 20.4004 15.0005C19.6411 15.0005 18.889 15.0005 18.1297 15.0005C17.6258 15.0005 17.4433 14.8127 17.436 14.3144C17.436 13.6283 17.436 12.935 17.436 12.2489C17.436 12.1695 17.436 12.09 17.436 12.0034C13.4639 12.0034 9.51378 12.0034 5.54172 12.0034C5.54172 12.285 5.54172 12.5595 5.54172 12.8267C5.54172 13.3394 5.54172 13.8522 5.54172 14.3577C5.53441 14.7983 5.34457 14.9933 4.89918 14.9933C4.1106 15.0005 3.32933 15.0005 2.54076 14.9933C2.09537 14.9933 1.89822 14.7983 1.89822 14.3505C1.89822 12.0756 1.89822 9.80068 1.89822 7.53299C1.89822 7.03467 2.09537 6.65913 2.56997 6.44969C2.59918 6.43525 2.62108 6.40636 2.68679 6.34859C2.56997 6.34136 2.50426 6.33414 2.43124 6.33414C1.84711 6.33414 1.26299 6.33414 0.678858 6.33414C0.342985 6.33414 0.218858 6.22581 0.109334 5.91527C-0.0513005 5.45306 -0.0293957 4.99808 0.131239 4.5431C0.204255 4.31922 0.357588 4.20367 0.598541 4.19644C1.27029 4.19644 1.94933 4.19644 2.62108 4.19644C2.87664 4.19644 3.02267 4.312 3.09568 4.55032C3.12489 4.64421 3.1541 4.73087 3.19791 4.86809C3.27822 4.65865 3.34394 4.49254 3.40235 4.32644C3.78933 3.26481 4.17632 2.19596 4.5706 1.13434C4.84806 0.397696 5.40299 0.000488281 6.22076 0.000488281C9.73283 0.000488281 13.2449 0.000488281 16.757 0.000488281C17.5893 0.000488281 18.137 0.390474 18.4217 1.16322C18.8525 2.32596 19.276 3.48147 19.6995 4.64421C19.7214 4.7092 19.7506 4.7742 19.7798 4.85364C19.8017 4.81753 19.8163 4.80309 19.8236 4.78142C20.0281 4.20367 20.0281 4.20367 20.6487 4.20367C21.2036 4.20367 21.7585 4.20367 22.3135 4.20367C22.6493 4.20367 22.7808 4.29755 22.8757 4.62976C22.9195 4.76698 22.956 4.91142 22.9925 5.05586C22.9998 5.20752 22.9998 5.35196 22.9998 5.50362ZM4.70203 6.36303C9.23632 6.36303 13.756 6.36303 18.283 6.36303C18.2684 6.31248 18.2611 6.27637 18.2538 6.24026C17.7427 4.84642 17.2316 3.44536 16.7277 2.0443C16.6693 1.89264 16.5817 1.88542 16.4576 1.88542C13.15 1.88542 9.84235 1.88542 6.52743 1.88542C6.35949 1.88542 6.29378 1.94319 6.24267 2.08763C5.75346 3.44536 5.25695 4.79587 4.76775 6.13915C4.73854 6.21137 4.72394 6.27637 4.70203 6.36303ZM5.52711 7.85798C5.17664 7.85798 4.82616 7.85075 4.47568 7.85798C3.97187 7.8652 3.59949 8.20463 3.58489 8.66683C3.57029 9.14348 3.92807 9.51902 4.44648 9.52625C5.16203 9.54069 5.88489 9.54069 6.60045 9.52625C7.11886 9.5118 7.46933 9.14348 7.45473 8.65961C7.44013 8.19741 7.07505 7.85798 6.56394 7.85075C6.21346 7.85075 5.87029 7.85798 5.52711 7.85798ZM17.4725 7.85798C17.122 7.85798 16.7716 7.85075 16.4211 7.85798C15.9246 7.8652 15.5595 8.19741 15.5376 8.65239C15.523 9.12904 15.8516 9.5118 16.3554 9.52625C17.0928 9.54791 17.8376 9.54791 18.575 9.52625C19.0789 9.5118 19.422 9.12904 19.4001 8.65961C19.3855 8.20463 19.0131 7.8652 18.5239 7.85798C18.1735 7.85075 17.823 7.85798 17.4725 7.85798Z" fill="#3C3C3C"/>
</g>
<defs>
<clipPath id="clip0_1_726">
<rect width="23" height="15" fill="white" transform="translate(0 0.000488281)"/>
</clipPath>
</defs>
</svg>
