<svg width="14" height="15" viewBox="0 0 14 15" fill="none" xmlns="http://www.w3.org/2000/svg">
<path fill-rule="evenodd" clip-rule="evenodd" d="M6.63405 0.000488281C8.40608 0.000488281 10.072 0.690547 11.325 1.94353C12.578 3.19657 13.2681 4.86251 13.2681 6.63454C13.2681 9.76073 11.0826 12.4596 8.0464 13.1174L6.63405 15.0005L5.22173 13.1174C2.18554 12.4597 0 9.76073 0 6.63454C0 4.86251 0.690059 3.19657 1.94307 1.94353C3.19606 0.690547 4.86203 0.000488281 6.63405 0.000488281ZM11.5068 6.60519C11.5068 3.91834 9.32093 1.73239 6.63405 1.73239C3.94717 1.73239 1.76125 3.91834 1.76125 6.60519C1.76125 9.29203 3.94717 11.478 6.63405 11.478C9.32093 11.478 11.5068 9.29203 11.5068 6.60519ZM10.6262 6.60521C10.6262 8.81002 8.83883 10.5974 6.63402 10.5974C4.4292 10.5974 2.64185 8.81002 2.64185 6.60521C2.64185 4.40039 4.4292 2.61304 6.63402 2.61304C8.83883 2.61304 10.6262 4.40039 10.6262 6.60521Z" fill="#3C3C3C"/>
</svg>
