<svg width="17" height="15" viewBox="0 0 17 15" fill="none" xmlns="http://www.w3.org/2000/svg">
<path fill-rule="evenodd" clip-rule="evenodd" d="M4.40045 1.13916V1.13912C4.39929 0.970367 4.39814 0.802382 4.40161 0.632083C4.40683 0.266741 4.68345 -0.00465689 5.02792 0.000562292C5.36716 0.000562292 5.64378 0.27196 5.64378 0.626864C5.649 1.14878 5.649 1.6707 5.64378 2.1874C5.63856 2.5423 5.36716 2.80848 5.0227 2.8137C4.67301 2.8137 4.40161 2.5423 4.3964 2.17696C4.3964 2.04648 4.3977 1.916 4.399 1.78552C4.40031 1.65504 4.40161 1.52456 4.40161 1.39408C4.40161 1.30866 4.40103 1.22381 4.40045 1.13916ZM0.0540368 4.99532H16.2752C16.2752 4.89888 16.2761 4.80419 16.277 4.71048V4.71039C16.2791 4.47955 16.2812 4.25469 16.27 4.02455C16.2439 3.12163 15.8682 2.38573 15.1583 1.82206C14.3807 1.20619 13.4673 1.21663 12.5227 1.2636C12.5227 1.37021 12.5232 1.47565 12.5238 1.5805L12.5238 1.5808C12.525 1.78898 12.5261 1.99487 12.5227 2.20306C12.5174 2.5684 12.3817 2.88155 12.1051 3.11641C11.7137 3.45566 11.2596 3.53917 10.7795 3.3304C10.2993 3.12163 10.0488 2.73541 10.0279 2.2135C10.0209 2.00494 10.0232 1.79406 10.0256 1.58242V1.58236L10.0256 1.58216C10.0267 1.4761 10.0279 1.36985 10.0279 1.2636H6.2753C6.2753 1.35995 6.27617 1.45499 6.27703 1.5491V1.54914V1.54917C6.27915 1.78133 6.28122 2.00785 6.27008 2.23437C6.2492 2.72497 6.01434 3.09554 5.57593 3.30952C5.1323 3.52873 4.68867 3.48698 4.28679 3.1947C3.95276 2.9494 3.78575 2.60493 3.78053 2.1874C3.77706 1.9823 3.77821 1.77489 3.77937 1.5667V1.56665V1.56659C3.77995 1.46224 3.78053 1.3577 3.78053 1.25317C3.67198 1.25317 3.56707 1.25256 3.46456 1.25197H3.46455C3.26641 1.25082 3.07723 1.24973 2.88805 1.25317C0.967394 1.28448 -0.279991 2.82936 0.0540368 4.99532ZM16.2805 5.63206H0.0279409V5.84605V12.1143C0.0279409 13.774 1.25967 15.0005 2.91937 15.0005H13.389C15.0487 15.0005 16.2805 13.7688 16.2805 12.1143V5.84605V5.63206ZM6.45797 9.16022V9.17066C6.52657 9.16754 6.60075 9.17141 6.67551 9.17531C6.85105 9.18446 7.02978 9.19378 7.1469 9.11325C7.24831 9.0372 7.28689 8.87067 7.32542 8.70436L7.32542 8.70435C7.34241 8.63099 7.3594 8.55767 7.38177 8.49217C7.43396 8.33559 7.48615 8.1738 7.53834 8.012C7.64794 7.68842 7.86193 7.50574 8.15421 7.50574C8.4517 7.50574 8.6709 7.6832 8.78051 8.02244C8.89011 8.34603 8.99971 8.67484 9.09888 9.00365C9.13541 9.12369 9.19282 9.16544 9.31808 9.16022C9.66777 9.15501 10.0227 9.15501 10.3724 9.16022C10.722 9.16544 10.9569 9.32202 11.0404 9.59864C11.1291 9.87525 11.03 10.131 10.7481 10.3398L10.567 10.4718C10.3419 10.6362 10.1187 10.7991 9.89219 10.9556C9.79303 11.0235 9.77737 11.0861 9.8139 11.1957C9.89044 11.4183 9.96233 11.641 10.0342 11.8636L10.0343 11.8638C10.0702 11.9751 10.1062 12.0864 10.1427 12.1978C10.2471 12.5266 10.1792 12.798 9.94438 12.9702C9.70952 13.1477 9.42247 13.132 9.13541 12.9233L8.98258 12.814C8.75722 12.6532 8.53314 12.4934 8.316 12.323C8.19074 12.2239 8.11245 12.2395 7.99763 12.3283C7.72623 12.5423 7.4444 12.7406 7.16256 12.9389C6.89638 13.132 6.61455 13.1425 6.3849 12.9754C6.15004 12.8032 6.07175 12.537 6.17092 12.2239C6.28052 11.8742 6.39012 11.5297 6.51016 11.1853C6.5467 11.0861 6.53104 11.0235 6.4371 10.9608C6.20209 10.7988 5.97337 10.6304 5.74606 10.4631L5.74604 10.4631L5.74601 10.463L5.74588 10.4629C5.68046 10.4148 5.61514 10.3667 5.54983 10.3189C5.28366 10.1258 5.18971 9.85959 5.27844 9.5882C5.36194 9.32724 5.59159 9.17066 5.90996 9.16022C6.03171 9.15675 6.15347 9.15791 6.27523 9.15907H6.2753C6.33619 9.15965 6.39708 9.16022 6.45797 9.16022ZM11.9027 1.66471C11.9022 1.58004 11.9016 1.49518 11.9016 1.40974C11.9016 1.32275 11.9022 1.23577 11.9027 1.14878C11.9039 0.974809 11.9051 0.800837 11.9016 0.626864C11.8964 0.27196 11.625 0.00578147 11.2857 0.000562292C10.936 -0.00465689 10.6594 0.266741 10.6542 0.632083C10.649 1.14878 10.649 1.66026 10.6542 2.17696C10.6594 2.5423 10.9308 2.8137 11.2805 2.8137C11.625 2.8137 11.8964 2.53708 11.9016 2.17174C11.9051 2.00144 11.9039 1.83346 11.9027 1.66471Z" fill="#3C3C3C"/>
</svg>
