<svg width="12" height="12" viewBox="0 0 12 12" fill="none" xmlns="http://www.w3.org/2000/svg">
<path fill-rule="evenodd" clip-rule="evenodd" d="M11.4515 0.0430324C11.5765 -0.0224673 11.7275 -0.0114674 11.8425 0.0700324C11.9575 0.152032 12.0165 0.291032 11.996 0.431031L10.621 9.681C10.6045 9.7905 10.54 9.888 10.445 9.946C10.3855 9.982 10.318 10.0005 10.25 10.0005C10.209 10.0005 10.168 9.9935 10.129 9.9805L4.88751 8.189L10.0415 1.97953L3.38101 7.67451L0.253521 6.60551C0.112022 6.55701 0.0125222 6.42901 0.00102224 6.27901C-0.00997773 6.12951 0.068522 5.98751 0.201522 5.91801L11.4515 0.0430324ZM4.37501 11.1255V8.8065L6.4085 9.5015L5.05201 11.3475C4.98001 11.4455 4.86701 11.5005 4.75001 11.5005C4.71101 11.5005 4.67151 11.4945 4.63301 11.482C4.47901 11.431 4.37501 11.2875 4.37501 11.1255Z" fill="#3C3C3C"/>
</svg>
