<svg width="20" height="16" viewBox="0 0 20 16" fill="none" xmlns="http://www.w3.org/2000/svg">
<path fill-rule="evenodd" clip-rule="evenodd" d="M1.65367 7.59175C1.47099 7.70028 1.28693 7.80963 1.10044 7.91948C1.11292 7.92942 1.12384 7.93856 1.13408 7.94714C1.16047 7.96922 1.18232 7.98751 1.21445 8.0058C1.63823 8.30029 2.06201 8.59605 2.48579 8.89181C2.90965 9.18762 3.33351 9.48343 3.75737 9.77798C3.82181 9.82368 3.90608 9.84399 3.98043 9.84907C4.65954 9.88461 5.33864 9.92016 6.01774 9.94555C6.11192 9.95062 6.21106 9.91508 6.29533 9.86938C9.48172 8.07742 12.6681 6.28039 15.8545 4.48335L15.8573 4.48177C16.1558 4.31234 16.4549 4.14441 16.754 3.97654C17.2348 3.7067 17.7153 3.437 18.192 3.16152C19.0099 2.68928 19.2528 1.68387 18.7472 0.906954C18.2912 0.20621 17.3989 0.00817314 16.6653 0.460103C15.6617 1.07776 14.6641 1.69854 13.6656 2.32C13.3917 2.49045 13.1177 2.66096 12.8435 2.83146C12.7344 2.89748 12.6601 2.90255 12.551 2.82639C11.7007 2.24993 10.8485 1.67545 9.99558 1.10048C9.4811 0.753659 8.96635 0.406665 8.45161 0.0589517C8.34255 -0.0172162 8.2682 -0.0172162 8.15419 0.048796C7.78679 0.27119 7.41489 0.486669 7.04152 0.702998C6.86077 0.807728 6.67967 0.912657 6.49857 1.01867L6.49854 1.01868C6.216 1.18625 5.93346 1.35381 5.63606 1.52645C6.76624 2.7553 7.88651 3.9689 9.00678 5.18251C9.00087 5.18978 8.9958 5.19619 8.99131 5.20186C8.97698 5.21996 8.96854 5.23064 8.95721 5.23837C8.73996 5.37307 8.52258 5.50791 8.30508 5.64282C7.20253 6.3267 6.09709 7.01238 4.99165 7.69098C4.93713 7.72652 4.83799 7.71637 4.77355 7.6859C4.44749 7.53905 4.12462 7.39057 3.80222 7.2423C3.55607 7.1291 3.3102 7.01603 3.0634 6.90391C2.99896 6.87852 2.89982 6.86328 2.84529 6.89375C2.44715 7.12033 2.05369 7.35409 1.65367 7.59175ZM0.0130072 13.8647L0 13.8657C0 14.2465 0 14.6273 0.00495695 15.0082C0.0892252 15.0031 0.17845 14.998 0.262719 14.998H16.6157H16.8685V13.8555H16.6504H0.203235C0.138192 13.8555 0.0775036 13.86 0.0130072 13.8647Z" fill="white"/>
</svg>
