<svg width="19" height="15" viewBox="0 0 19 15" fill="none" xmlns="http://www.w3.org/2000/svg">
<g clip-path="url(#clip0_1_734)">
<path d="M0 3.88538C0.104951 3.48788 0.299304 3.15038 0.699673 2.97038C0.847381 2.90288 1.01453 2.85038 1.1739 2.84288C1.57815 2.82413 1.98629 2.83538 2.40998 2.83538C2.40998 6.87788 2.40998 10.9241 2.40998 14.9891C2.35556 14.9929 2.29726 14.9966 2.23895 14.9966C1.93576 14.9966 1.63257 15.0004 1.32938 14.9966C0.653028 14.9816 0.206015 14.6404 0.0310966 14.0104C0.0233224 13.9879 0.0116612 13.9691 0 13.9466C0 10.5941 0 7.23788 0 3.88538Z" fill="#3C3C3C"/>
<path d="M3.4284 14.9854C3.4284 10.9317 3.4284 6.88916 3.4284 2.82791C4.32242 2.82791 5.21256 2.82791 6.12603 2.82791C6.12603 2.59916 6.11436 2.38541 6.12991 2.17541C6.15323 1.84541 6.15323 1.50416 6.24264 1.18916C6.41756 0.547913 7.10168 0.0341631 7.79358 0.0229131C8.90139 0.00416314 10.0092 0.000413138 11.1131 0.0191631C12.1082 0.0379131 12.8507 0.795413 12.8701 1.76666C12.8779 2.11166 12.8701 2.45666 12.8701 2.82416C13.3288 2.82416 13.7719 2.82416 14.215 2.82416C14.6581 2.82416 15.1052 2.82416 15.5638 2.82416C15.5638 6.88541 15.5638 10.9317 15.5638 14.9892C11.5213 14.9854 7.47873 14.9854 3.4284 14.9854ZM11.222 10.6317C11.1831 10.3692 11.0432 10.1929 10.7866 10.1217C10.5379 10.0542 10.2813 10.0017 10.0364 9.93041C9.97423 9.91166 9.90037 9.84791 9.87705 9.79166C9.77987 9.56666 9.69824 9.33416 9.61273 9.10541C9.53887 8.91041 9.40283 8.78291 9.18515 8.76041C8.96747 8.73791 8.80422 8.83541 8.6876 9.01166C8.56322 9.20291 8.43106 9.39041 8.31056 9.58541C8.24837 9.68666 8.1784 9.73916 8.05013 9.73541C7.8169 9.73166 7.57979 9.75041 7.34657 9.75791C7.125 9.76541 6.9462 9.84416 6.85679 10.0504C6.77128 10.2454 6.81404 10.4217 6.95397 10.5829C7.10945 10.7629 7.25716 10.9429 7.41653 11.1192C7.49039 11.1979 7.50982 11.2692 7.47484 11.3779C7.40098 11.5879 7.35045 11.8017 7.28437 12.0117C7.21829 12.2292 7.22995 12.4279 7.41653 12.5854C7.59534 12.7354 7.79747 12.7279 8.00737 12.6454C8.22504 12.5592 8.44272 12.4729 8.66428 12.4017C8.73425 12.3792 8.83531 12.3904 8.89751 12.4242C9.1113 12.5442 9.30954 12.6867 9.51555 12.8179C9.69436 12.9342 9.88482 12.9642 10.0753 12.8629C10.2696 12.7617 10.3396 12.5892 10.3279 12.3829C10.3124 12.1392 10.2891 11.8954 10.2891 11.6517C10.2891 11.5804 10.3318 11.4942 10.3863 11.4454C10.5728 11.2879 10.7827 11.1604 10.9615 10.9954C11.0665 10.8942 11.1365 10.7517 11.222 10.6317ZM7.13278 2.80541C8.72259 2.80541 10.293 2.80541 11.875 2.80541C11.875 2.49791 11.875 2.20541 11.875 1.91666C11.875 1.24541 11.5835 0.964163 10.8799 0.964163C9.96645 0.964163 9.05299 0.964163 8.13564 0.964163C8.03846 0.964163 7.9374 0.967913 7.84022 0.979163C7.4554 1.02041 7.15999 1.29416 7.13666 1.66916C7.11723 2.04041 7.13278 2.41541 7.13278 2.80541ZM6.25819 6.40541C6.1649 6.43541 6.06772 6.45791 5.98609 6.50291C5.54685 6.73541 5.10761 6.96791 4.67226 7.20791C4.37684 7.36916 4.2991 7.62041 4.45847 7.90541C4.69947 8.33666 4.94436 8.76416 5.19702 9.18791C5.36416 9.46916 5.62848 9.54416 5.9239 9.39041C6.3748 9.15416 6.82181 8.91416 7.26882 8.66666C7.53314 8.52041 7.61477 8.26541 7.47095 8.00666C7.22218 7.56041 6.96563 7.11791 6.70909 6.67541C6.61191 6.51041 6.4642 6.42041 6.25819 6.40541ZM13.3676 5.99291C13.7836 5.99291 14.1567 5.92166 14.4171 5.78291C14.6698 5.64791 14.8447 5.46041 14.8486 5.16416C14.8525 4.86791 14.6854 4.65791 14.4249 4.54166C13.7486 4.24166 13.0606 4.24166 12.3842 4.53791C12.1238 4.65416 11.9527 4.86041 11.9527 5.15666C11.9527 5.46041 12.1315 5.65166 12.392 5.79041C12.7029 5.95166 13.045 5.98166 13.3676 5.99291Z" fill="#3C3C3C"/>
<path d="M16.5861 2.85044C17.0642 2.85044 17.5307 2.81294 17.9855 2.86169C18.483 2.91419 18.8834 3.34919 18.9689 3.83294C18.9883 3.94544 18.9961 4.05794 18.9961 4.17044C18.9961 7.33169 18.9961 10.4929 18.9961 13.6542C18.9961 14.3292 18.6463 14.8017 18.0127 14.9554C17.8378 14.9967 17.6473 14.9929 17.4607 14.9967C17.1731 15.0042 16.8815 14.9967 16.5822 14.9967C16.5861 10.9354 16.5861 6.89294 16.5861 2.85044Z" fill="#3C3C3C"/>
</g>
<defs>
<clipPath id="clip0_1_734">
<rect width="19" height="15" fill="white" transform="translate(0 0.000488281)"/>
</clipPath>
</defs>
</svg>
